<?xml version="1.0" encoding="UTF-8" standalone="no"?>
<!DOCTYPE svg PUBLIC "-//W3C//DTD SVG 1.1//EN" "http://www.w3.org/Graphics/SVG/1.1/DTD/svg11.dtd">
<svg version="1.1" xmlns="http://www.w3.org/2000/svg" xmlns:xlink="http://www.w3.org/1999/xlink" preserveAspectRatio="xMidYMid meet" viewBox="0 0 640 640" width="640" height="640"><defs><path d="M0 320C0 496.73 143.27 640 320 640C496.73 640 640 496.73 640 320C640 143.27 496.73 0 320 0C143.27 0 0 143.27 0 320ZM126.37 211.79C126.36 181.31 151.06 156.61 181.53 156.6C212 156.59 236.71 181.29 236.72 211.76C236.72 211.76 236.72 211.77 236.72 211.77C236.71 242.23 212.02 266.93 181.56 266.95C151.08 266.95 126.38 242.26 126.37 211.79ZM264.84 488.63C264.84 458.17 289.54 433.47 320 433.47C350.46 433.47 375.16 458.17 375.16 488.63C375.16 519.09 350.46 543.79 320 543.79C289.54 543.79 264.84 519.09 264.84 488.63ZM264.84 350.19C264.84 319.72 289.54 295.03 320 295.03C350.46 295.03 375.16 319.72 375.16 350.19C375.18 380.65 350.51 405.37 320.04 405.39C320.03 405.39 320.01 405.39 320 405.39C289.54 405.35 264.84 380.65 264.84 350.19ZM264.81 211.74C264.8 181.27 289.5 156.56 319.97 156.56C350.44 156.55 375.15 181.24 375.16 211.72C375.16 211.72 375.16 211.73 375.16 211.73C375.18 242.2 350.5 266.92 320.03 266.95C320.02 266.95 320.01 266.95 320 266.95C289.53 266.91 264.82 242.22 264.81 211.74ZM403.27 211.73C403.27 181.26 427.97 156.56 458.44 156.56C488.92 156.56 513.62 181.26 513.62 211.73C513.64 242.2 488.96 266.92 458.49 266.95C458.47 266.95 458.46 266.95 458.44 266.95C427.97 266.9 403.27 242.2 403.27 211.73Z" id="b6BIRLiCbn"></path></defs><g><g><g><use xlink:href="#b6BIRLiCbn" opacity="1" fill="#000000" fill-opacity="1"></use><g><use xlink:href="#b6BIRLiCbn" opacity="1" fill-opacity="0" stroke="#000000" stroke-width="1" stroke-opacity="0"></use></g></g></g></g></svg>